<svg width="61" height="45" viewBox="0 0 61 45" fill="none" xmlns="http://www.w3.org/2000/svg">
<path d="M35.2401 23.4748V0.272339H25.8843V1.0208H29.0029V43.4963H29.7514C29.7514 41.438 30.4374 40.0034 31.6225 39.1302C35.3649 43.2468 38.7953 44.12 41.9763 44.12C51.5193 44.12 60.9998 36.0116 60.9998 24.847C60.9998 15.6159 54.4508 10.938 49.461 9.19157L35.2401 23.4748ZM45.282 42.6231C40.3546 42.6231 35.2401 39.0055 35.2401 31.2713V30.7724C35.2401 25.1589 36.9865 22.7887 40.417 19.3582L45.9058 13.8071C51.0827 15.6783 55.0745 20.1067 55.0745 27.4043C55.0745 36.6977 51.2698 42.6231 45.282 42.6231Z" fill="#274546"/>
<path d="M12.9835 43.4963C5.47336 43.4963 0.509047 39.2082 0.509047 33.7562C0.509047 29.6519 3.37307 26.1602 8.46469 24.4449L18.6479 20.7694C21.3846 19.7893 23.1031 17.9515 23.1031 15.5624C23.1031 12.4383 19.8572 9.98793 15.6566 9.98793C9.03749 9.98793 6.80991 16.0525 7.00085 19.8505H-0.000116348C1.33643 12.9283 7.06449 9.19157 14.4473 9.19157C21.6392 9.19157 26.349 12.6833 26.349 17.9515C26.349 21.5045 24.1214 25.4863 18.6479 27.3853L11.2014 29.9582C6.49169 31.5509 3.94588 33.3887 3.94588 36.5128C3.94588 40.0658 7.38272 42.6999 11.9652 42.6999C19.6662 42.6999 24.6942 35.0426 26.9854 29.4069L27.4309 28.3042H28.0674L27.7492 29.6519C26.9218 33.2661 26.0944 36.8804 27.8128 40.0658C22.212 42.5162 16.4203 43.4963 12.9835 43.4963Z" fill="#274546"/>
</svg>
